<svg width="335" height="287" viewBox="0 0 335 287" fill="none" xmlns="http://www.w3.org/2000/svg">
<g clip-path="url(#clip0_0_1403)">
<path d="M173.631 240.741L183.409 237.86L180.556 247.667L183.409 257.445L173.631 254.592L163.825 257.445L166.706 247.667L163.825 237.86L173.631 240.741Z" fill="black" stroke="white" stroke-width="0.555556" stroke-miterlimit="10"/>
</g>
<g clip-path="url(#clip1_0_1403)">
<path d="M70.2691 192.394L87.7558 201.922L70.2691 211.526L60.7031 228.974L51.1371 211.526L33.6504 201.922L51.1371 192.394L60.7031 174.869L70.2691 192.394Z" fill="black" stroke="white" stroke-width="0.555556" stroke-miterlimit="10"/>
</g>
<path d="M314.51 216.741C313.454 218.654 311.489 220.038 308.658 220.896C305.826 221.755 302.152 222.079 297.729 221.889C288.885 221.507 277.106 219.069 263.209 214.815C235.42 206.31 199.219 190.564 161.197 169.592C123.175 148.619 90.5456 126.398 68.5275 107.431C57.5166 97.9451 49.171 89.2829 44.1301 82.0053C41.6094 78.366 39.9242 75.0859 39.1398 72.2323C38.3558 69.38 38.4778 66.9791 39.5332 65.0658C40.5885 63.1526 42.5542 61.7686 45.385 60.9102C48.2171 60.0514 51.8904 59.7271 56.3134 59.9179C65.1581 60.2994 76.9368 62.7376 90.8336 66.991C118.623 75.4964 154.824 91.2421 192.846 112.215C230.868 133.187 263.497 155.408 285.515 174.376C296.526 183.861 304.872 192.523 309.913 199.801C312.433 203.44 314.119 206.721 314.903 209.574C315.687 212.426 315.565 214.827 314.51 216.741Z" stroke="black" stroke-width="0.555556"/>
<path d="M303.27 237.115C302.215 239.028 300.249 240.412 297.419 241.271C294.587 242.129 290.913 242.454 286.49 242.263C277.646 241.881 265.867 239.443 251.97 235.19C224.181 226.684 187.98 210.939 149.958 189.966C111.936 168.994 79.3064 146.773 57.2883 127.805C46.2775 118.319 37.9319 109.657 32.891 102.38C30.3702 98.7403 28.685 95.4602 27.9007 92.6066C27.1167 89.7544 27.2387 87.3534 28.294 85.4402C29.3493 83.527 31.3151 82.143 34.1458 81.2846C36.9779 80.4258 40.6513 80.1014 45.0742 80.2922C53.9189 80.6738 65.6977 83.112 79.5945 87.3653C107.384 95.8708 143.585 111.616 181.607 132.589C219.628 153.562 252.258 175.782 274.276 194.75C285.287 204.236 293.633 212.898 298.673 220.175C301.194 223.815 302.879 227.095 303.664 229.948C304.448 232.801 304.326 235.202 303.27 237.115Z" stroke="black" stroke-width="0.555556"/>
<path d="M292.032 257.49C290.977 259.403 289.011 260.787 286.181 261.645C283.348 262.504 279.675 262.828 275.252 262.638C266.407 262.256 254.629 259.818 240.732 255.564C212.943 247.059 176.742 231.313 138.72 210.341C100.698 189.368 68.0684 167.148 46.0503 148.18C35.0394 138.694 26.6938 130.032 21.6529 122.754C19.1322 119.115 17.4469 115.835 16.6626 112.981C15.8786 110.129 16.0006 107.728 17.056 105.815C18.1113 103.902 20.077 102.518 22.9077 101.659C25.7398 100.8 29.4132 100.476 33.8362 100.667C42.6809 101.048 54.4596 103.487 68.3564 107.74C96.1455 116.245 132.347 131.991 170.369 152.964C208.39 173.936 241.02 196.157 263.038 215.125C274.049 224.61 282.395 233.273 287.435 240.55C289.956 244.189 291.641 247.47 292.426 250.323C293.21 253.175 293.088 255.576 292.032 257.49Z" stroke="black" stroke-width="0.555556"/>
<circle cx="73.9095" cy="58.4999" r="8.61111" fill="#B9FF66"/>
<circle cx="234.743" cy="242.111" r="5.55556" fill="#B9FF66"/>
<circle cx="46.1317" cy="36.2777" r="13.0556" fill="black"/>
<path d="M170.838 213.55C167.336 214.747 163.334 212.375 161.942 208.262L140.276 144.783L152.936 140.452L174.623 204.018C176.016 208.087 174.319 212.353 170.838 213.55Z" fill="black"/>
<path d="M168.946 214.333C167.923 214.333 166.879 214.094 165.879 213.593C163.856 212.592 162.246 210.721 161.463 208.414L139.797 144.935C139.71 144.696 139.84 144.413 140.101 144.326L152.762 139.995C152.892 139.952 153.023 139.952 153.131 140.017C153.24 140.082 153.327 140.17 153.371 140.3L175.058 203.866C176.516 208.175 174.689 212.723 170.969 214.007C170.338 214.224 169.642 214.333 168.946 214.333ZM140.885 145.088L162.398 208.109C163.094 210.177 164.53 211.874 166.314 212.745C167.749 213.441 169.294 213.572 170.686 213.093C173.905 211.983 175.472 207.979 174.166 204.171L152.631 141.062L140.885 145.088Z" fill="black"/>
<path d="M150.695 85.6564L109.734 114.882L93.7892 131.443L87.5244 142.52L87.5026 142.607C86.2627 144.522 86.9805 148.939 89.3081 153.444C91.5922 157.883 94.8116 160.973 97.0739 161.148L97.0086 161.191L109.038 162.497L131.552 158.906L179.343 141.801L238.751 151.986L239.164 152.008C224.241 149.222 204.098 129.267 189.459 101.042C174.841 72.8388 170.185 44.9621 176.603 31.2087H176.581L151.021 84.96L150.695 85.6564Z" fill="#B9FF66"/>
<path d="M249.037 150.779C263.719 143.151 260.88 108.571 242.696 73.5425C224.512 38.5136 197.868 16.3006 183.187 23.9283C168.505 31.5561 171.344 66.1361 189.528 101.165C207.712 136.194 234.355 158.407 249.037 150.779Z" fill="white"/>
<path d="M242.58 152.769C236.184 152.769 228.484 149.201 220.196 142.259C208.906 132.814 197.834 118.255 189.024 101.238C175.689 75.472 170.186 49.0534 175.015 33.929C176.625 28.8803 179.322 25.3549 182.998 23.4617C190.307 19.7187 200.596 22.8959 211.995 32.4275C223.285 41.872 234.357 56.4306 243.167 73.4482C256.523 99.214 262.027 125.633 257.176 140.757C255.566 145.806 252.869 149.331 249.192 151.224C247.213 152.269 244.994 152.769 242.58 152.769ZM189.655 22.8959C187.414 22.8959 185.326 23.3529 183.455 24.3322C179.996 26.0948 177.473 29.4461 175.95 34.2555C171.186 49.1622 176.668 75.298 189.894 100.846C207.905 135.6 234.313 157.84 248.779 150.419C252.238 148.657 254.761 145.305 256.284 140.496C261.048 125.589 255.566 99.4534 242.34 73.9052C226.656 43.6565 204.642 22.8959 189.655 22.8959Z" fill="black"/>
<path d="M242.579 152.769C236.184 152.769 228.483 149.2 220.196 142.258C208.906 132.814 197.834 118.255 189.024 101.238C175.689 75.4719 170.186 49.0533 175.015 33.9289C176.625 28.8802 179.322 25.3548 182.998 23.4616C187.893 20.9372 194.288 21.5683 201.488 25.2678C208.384 28.8149 215.845 35.1041 223.11 43.4388C223.285 43.6346 223.263 43.9393 223.067 44.1134C222.871 44.2875 222.567 44.2657 222.393 44.0699C207.644 27.1393 192.722 19.5662 183.455 24.332C179.996 26.0947 177.473 29.446 175.95 34.2554C171.186 49.1621 176.668 75.2978 189.894 100.846C205.556 131.073 227.592 151.855 242.558 151.855C244.798 151.855 246.886 151.398 248.757 150.419C252.216 148.656 254.739 145.305 256.262 140.496C261.026 125.589 255.544 99.4533 242.318 73.9051C238.381 66.2885 233.943 59.1289 229.18 52.6222C229.027 52.4046 229.071 52.0999 229.288 51.9476C229.506 51.7953 229.81 51.8388 229.963 52.0564C234.77 58.6067 239.208 65.8098 243.188 73.4699C256.523 99.2139 262.026 125.633 257.176 140.757C255.566 145.806 252.868 149.331 249.192 151.224C247.213 152.269 244.994 152.769 242.579 152.769Z" fill="black"/>
<path d="M215.724 106.188C219.125 104.421 218.471 96.4168 214.263 88.3103C210.055 80.2037 203.886 75.0645 200.485 76.8316C197.083 78.5986 197.738 86.6028 201.946 94.7094C206.154 102.816 212.323 107.955 215.724 106.188Z" fill="#B9FF66"/>
<path d="M214.236 107.026C210.494 107.026 205.274 102.195 201.51 94.9052C198.378 88.8554 197.095 82.6316 198.248 79.0409C198.661 77.7788 199.335 76.8865 200.271 76.4078C203.969 74.5145 210.299 79.672 214.693 88.1373C217.825 94.187 219.109 100.411 217.956 104.002C217.542 105.264 216.868 106.156 215.933 106.635C215.411 106.896 214.845 107.026 214.236 107.026ZM201.967 76.9518C201.51 76.9518 201.075 77.0389 200.706 77.2347C199.988 77.6047 199.466 78.301 199.139 79.3238C198.074 82.6751 199.313 88.6378 202.337 94.4699C206.34 102.195 212.365 107.396 215.476 105.786C216.194 105.416 216.716 104.72 217.042 103.697C218.108 100.324 216.846 94.3829 213.844 88.5508C210.32 81.7829 205.274 76.9518 201.967 76.9518Z" fill="#B9FF66"/>
<path d="M239.273 144.652C233.661 144.652 226.918 141.518 219.652 135.447C209.776 127.178 200.074 114.425 192.374 99.5403C180.693 76.9952 175.885 53.8625 180.105 40.6097C181.519 36.1703 183.89 33.0802 187.131 31.4045C194.571 27.5962 205.513 31.9921 217.172 43.4605C217.368 43.6563 217.368 43.9392 217.172 44.1351C216.976 44.3309 216.694 44.3309 216.498 44.1351C205.143 32.9713 194.593 28.619 187.567 32.2532C184.565 33.7983 182.368 36.6926 181.019 40.8926C176.864 53.9061 181.65 76.7558 193.222 99.105C206.905 125.545 226.156 143.695 239.251 143.695C241.209 143.695 243.015 143.281 244.668 142.454C247.67 140.909 249.867 138.015 251.216 133.815C255.37 120.801 250.585 97.9517 239.012 75.6024C235.51 68.8563 231.594 62.5237 227.374 56.8004C227.222 56.5827 227.266 56.2781 227.483 56.1257C227.701 55.9734 228.005 56.0169 228.157 56.2346C232.421 62.0232 236.358 68.3776 239.882 75.1672C251.564 97.7123 256.371 120.845 252.151 134.098C250.737 138.537 248.366 141.627 245.125 143.303C243.341 144.195 241.383 144.652 239.273 144.652Z" fill="black"/>
<path d="M109.06 162.954C109.038 162.954 109.017 162.954 109.017 162.954L96.9873 161.648C96.9221 161.648 96.8568 161.626 96.7915 161.583C94.3117 161.191 91.1793 158.058 88.8952 153.662C86.4589 149.026 85.7411 144.5 87.068 142.367L87.0897 142.302L93.3546 131.204C93.3763 131.16 93.3981 131.138 93.4198 131.117L109.365 114.556C109.386 114.534 109.408 114.512 109.43 114.491L150.282 85.3301L176.124 30.9913C176.19 30.8824 176.277 30.7954 176.407 30.7519C176.538 30.7084 176.668 30.7084 176.777 30.7736C177.016 30.8824 177.125 31.1653 177.016 31.4047C170.469 45.441 175.646 73.3394 189.872 100.803C204.12 128.309 223.981 148.678 239.273 151.486C239.512 151.529 239.686 151.747 239.665 152.008C239.643 152.247 239.425 152.421 239.186 152.443L238.773 152.421C238.751 152.421 238.729 152.421 238.708 152.421L179.409 142.259L131.727 159.32C131.705 159.32 131.661 159.341 131.64 159.341L109.125 162.932C109.104 162.954 109.082 162.954 109.06 162.954ZM97.3354 160.734L109.06 161.996L131.466 158.406L179.235 141.323C179.322 141.301 179.387 141.279 179.474 141.301L232.856 150.441C218.434 144.108 201.575 125.415 189.067 101.26C176.646 77.2783 171.099 52.927 174.145 37.5415L151.13 85.8524C151.087 85.9177 151.043 85.983 150.978 86.0265L110.061 115.252L94.1812 131.726L87.9163 142.824C87.9163 142.846 87.8946 142.868 87.8946 142.868C86.7634 144.631 87.5248 148.983 89.7218 153.226C91.8754 157.383 94.986 160.517 97.1178 160.669C97.2048 160.669 97.2701 160.691 97.3354 160.734Z" fill="black"/>
<path d="M150.76 85.4824L176.58 31.1871H176.602C170.185 44.9405 174.862 72.8172 189.458 101.02C204.098 129.267 224.241 149.222 239.207 151.964L238.794 151.943L179.473 141.78L178.103 141.54C171.207 140.322 162.006 131.356 155.415 118.56C148.65 105.438 147.453 92.3591 150.455 86.1353L150.76 85.4824Z" fill="white"/>
<path d="M239.207 152.443C239.185 152.443 239.207 152.443 239.207 152.443L238.772 152.421C238.75 152.421 238.729 152.421 238.707 152.421L179.387 142.259L178.016 142.019C170.729 140.735 161.484 131.399 154.98 118.799C147.606 104.48 147.236 91.728 150.02 85.9394L150.347 85.2865L176.167 31.013C176.232 30.9041 176.319 30.8171 176.45 30.7736C176.581 30.73 176.711 30.7301 176.82 30.7953C177.059 30.9041 177.168 31.187 177.059 31.4264C170.511 45.4627 175.689 73.3611 189.915 100.824C204.163 128.331 224.024 148.7 239.316 151.507C239.555 151.551 239.729 151.768 239.707 152.03C239.642 152.247 239.446 152.443 239.207 152.443ZM174.101 37.5414L151.195 85.7L150.869 86.3528C148.106 92.0979 148.911 104.937 155.828 118.342C162.202 130.703 171.186 139.843 178.19 141.062L179.561 141.301L232.834 150.441C218.411 144.108 201.553 125.415 189.045 101.26C176.624 77.2782 171.077 52.9269 174.101 37.5414Z" fill="black"/>
<path d="M108.407 162.889C108.386 162.889 108.364 162.889 108.364 162.889L96.9653 161.67C96.9 161.67 96.8347 161.648 96.7695 161.605C94.2896 161.213 91.1572 158.079 88.8732 153.683C86.4586 149.026 85.7408 144.5 87.0677 142.367L87.0894 142.302L93.3543 131.204C93.4848 130.964 93.7676 130.899 94.0069 131.029C94.2461 131.16 94.3114 131.443 94.1809 131.682L87.916 142.824C87.916 142.846 87.8943 142.868 87.8943 142.868C86.7631 144.63 87.5245 148.983 89.7215 153.226C91.8751 157.383 94.9857 160.516 97.1175 160.669C97.1828 160.669 97.2698 160.691 97.3133 160.734L108.451 161.931C108.712 161.953 108.908 162.192 108.864 162.453C108.842 162.693 108.647 162.889 108.407 162.889Z" fill="black"/>
<path d="M109.168 162.41C105.47 162.149 100.293 156.904 96.53 149.658C92.5493 141.976 91.6139 134.033 94.0502 131.204L87.5461 142.52L87.5026 142.607C86.2627 144.522 86.9805 148.939 89.3081 153.444C91.5921 157.884 94.8116 160.974 97.0739 161.148L97.0086 161.191L109.168 162.41Z" fill="white"/>
<path d="M109.169 162.889C109.147 162.889 109.147 162.889 109.125 162.889C109.038 162.889 108.929 162.867 108.842 162.867L96.9653 161.67C96.9 161.67 96.8347 161.648 96.7695 161.605C94.2896 161.213 91.1572 158.079 88.8732 153.683C86.4586 149.026 85.7408 144.5 87.0677 142.367L87.0894 142.302L92.8105 132.335C93.028 131.769 93.3108 131.269 93.6588 130.855C93.8111 130.66 94.0939 130.638 94.2896 130.768C94.4854 130.921 94.5507 131.182 94.4202 131.399L93.6153 132.77C92.3319 136.231 93.5936 143.02 96.9 149.375C100.489 156.317 105.384 161.387 108.886 161.844L109.147 161.866C109.408 161.888 109.604 162.127 109.582 162.388C109.604 162.693 109.408 162.889 109.169 162.889ZM97.3133 160.734L105.623 161.583C102.425 159.537 98.9013 155.316 96.0951 149.875C93.376 144.631 92.0273 139.19 92.2449 135.273L87.916 142.824C87.916 142.846 87.8943 142.868 87.8943 142.868C86.7631 144.631 87.5245 148.983 89.7215 153.226C91.8751 157.383 94.9857 160.517 97.1175 160.669C97.1828 160.669 97.2698 160.691 97.3133 160.734Z" fill="black"/>
<path d="M130.747 158.993L131.704 158.797C126.527 159.885 118.348 152.051 112.584 140.931C106.688 129.571 105.579 118.233 109.756 114.882L109.212 115.426L94.0935 131.138C91.6137 133.924 92.5273 141.91 96.5299 149.636C100.38 157.078 105.84 162.388 109.56 162.366L130.747 158.993Z" fill="black"/>
<path d="M109.539 162.867C105.58 162.867 100.076 157.535 96.0953 149.875C92.0492 142.041 91.0268 133.859 93.7242 130.834L108.56 115.426C108.821 115.078 109.125 114.774 109.452 114.512C109.647 114.36 109.93 114.382 110.104 114.556C110.278 114.752 110.278 115.035 110.104 115.209L109.256 116.101C106.232 120.149 107.733 130.507 113.019 140.714C118.718 151.725 126.68 159.276 131.552 158.362L131.618 158.34C131.879 158.297 132.118 158.449 132.183 158.71C132.227 158.972 132.075 159.211 131.814 159.276C131.792 159.276 131.77 159.276 131.748 159.298L130.856 159.472H130.835L109.647 162.845C109.604 162.845 109.56 162.867 109.539 162.867ZM107.298 118.125L94.442 131.487C92.0492 134.185 93.1369 142.063 96.9654 149.44C100.707 156.665 105.993 161.888 109.539 161.909L128.246 158.928C123.199 157.144 116.978 150.419 112.171 141.17C107.603 132.357 105.841 123.391 107.298 118.125Z" fill="black"/>
<path d="M200.488 76.8211C197.073 78.5621 197.573 86.6357 201.924 94.6875C209.211 108.158 215.019 106.569 215.693 106.33C215.715 106.33 215.715 106.352 215.693 106.352L203.185 116.427C199.509 111.27 196.007 105.525 192.788 99.3227C189.72 93.3818 187.132 87.4626 185.087 81.7175L200.488 76.8211Z" fill="black"/>
<path d="M203.185 116.906C203.164 116.906 203.142 116.906 203.12 116.906C202.99 116.884 202.881 116.819 202.794 116.71C199.03 111.422 195.528 105.634 192.374 99.5621C189.35 93.73 186.74 87.7891 184.652 81.9134C184.608 81.7828 184.608 81.6523 184.674 81.5435C184.739 81.4346 184.826 81.3476 184.956 81.3041L200.357 76.4077C200.597 76.3424 200.858 76.4512 200.945 76.6906C201.032 76.93 200.945 77.1911 200.727 77.2999C199.988 77.6699 199.444 78.4098 199.117 79.4979C198.052 82.9144 199.357 88.9642 202.38 94.5134C209.494 107.657 214.975 106.156 215.563 105.938C215.78 105.851 216.041 105.96 216.15 106.156C216.259 106.352 216.215 106.635 216.041 106.787L203.49 116.797C203.403 116.863 203.294 116.906 203.185 116.906ZM185.718 82.0222C187.784 87.702 190.308 93.4471 193.222 99.1051C196.268 104.981 199.661 110.574 203.294 115.731L214.149 106.983C211.669 106.874 206.992 105.024 201.51 94.9051C198.334 89.0512 197.029 82.8709 198.182 79.1497C198.334 78.6709 198.508 78.2574 198.726 77.8657L185.718 82.0222Z" fill="black"/>
<path d="M264.847 45.7762C274.791 40.5519 278.637 28.2865 273.437 18.3805C268.238 8.4746 255.961 4.67937 246.016 9.90365C236.072 15.1279 232.225 27.3934 237.425 37.2993C242.625 47.2052 254.902 51.0005 264.847 45.7762Z" fill="black"/>
<path d="M246.169 23.3527C247.126 22.047 248.54 21.2418 250.15 21.0677C251.368 20.9371 252.499 21.1983 253.565 21.8511C254.109 22.1775 254.588 22.591 255.044 23.0915C255.371 22.504 255.762 21.9817 256.219 21.5464C257.111 20.676 258.177 20.1755 259.373 20.0449C260.983 19.8708 262.549 20.3496 263.767 21.4159C264.964 22.4604 265.725 23.9838 265.921 25.7029C266.117 27.4656 265.638 29.163 264.42 31.0345C263.332 32.7102 261.679 34.4511 259.765 36.4967C259.112 37.1931 258.373 37.9765 257.611 38.8034C257.415 39.0211 257.133 39.1734 256.828 39.1951C256.524 39.2387 256.241 39.1516 255.98 38.9775C255.044 38.3247 254.153 37.7154 253.369 37.1931C251.064 35.6262 249.062 34.277 247.627 32.8843C246.017 31.3392 245.19 29.7724 244.995 28.0097C244.821 26.2905 245.234 24.6366 246.169 23.3527Z" fill="white"/>
<path d="M321.263 46.8843C328.543 39.6012 328.543 27.793 321.263 20.5099C313.982 13.2268 302.179 13.2267 294.899 20.5099C287.619 27.793 287.619 39.6012 294.899 46.8843C302.179 54.1674 313.982 54.1674 321.263 46.8843Z" fill="#B9FF66"/>
<path d="M308.077 52.8181C297.549 52.8181 288.956 44.2441 288.956 33.6897C288.956 23.157 297.527 14.5612 308.077 14.5612C318.627 14.5612 327.198 23.1352 327.198 33.6897C327.198 44.2223 318.627 52.8181 308.077 52.8181ZM308.077 15.5187C298.071 15.5187 289.913 23.6575 289.913 33.6897C289.913 43.7 298.049 51.8606 308.077 51.8606C318.083 51.8606 326.241 43.7218 326.241 33.6897C326.241 23.6793 318.105 15.5187 308.077 15.5187Z" fill="#B9FF66"/>
<path d="M313.124 35.5394C312.079 35.5394 311.166 36.0399 310.557 36.8233L304.27 34.3643C304.27 34.2772 304.292 34.2119 304.292 34.1249C304.292 33.9726 304.27 33.8202 304.248 33.6679L310.687 30.6866C311.275 31.3612 312.145 31.7964 313.124 31.8182C314.907 31.8182 316.387 30.3601 316.387 28.5539C316.387 26.7477 314.929 25.2679 313.124 25.2679C311.34 25.2679 309.861 26.7259 309.861 28.5321C309.861 28.6845 309.882 28.8368 309.904 28.9891L303.465 31.9705C302.878 31.2959 302.008 30.8606 301.029 30.8389C299.245 30.8389 297.766 32.2969 297.766 34.1031C297.766 35.9093 299.223 37.3891 301.029 37.3891C302.073 37.3891 302.987 36.8886 303.596 36.1052L309.882 38.5643C309.882 38.6513 309.861 38.7166 309.861 38.8036C309.861 40.6099 311.318 42.0897 313.124 42.0897C314.907 42.0897 316.387 40.6316 316.387 38.8254C316.365 37.0192 314.907 35.5612 313.124 35.5394Z" fill="black"/>
<path d="M313.371 105.996C321.907 100.068 324.052 88.3791 318.161 79.888C312.27 71.397 300.573 69.3191 292.036 75.247C283.5 81.1749 281.355 92.8637 287.246 101.355C293.137 109.846 304.834 111.924 313.371 105.996Z" fill="black"/>
<path d="M298.006 99.5403L295.266 84.6771C295.135 83.9154 295.831 83.2844 296.571 83.4802L312.777 88.0719C313.603 88.3113 313.799 89.3776 313.125 89.8999L299.638 100.171C299.051 100.65 298.159 100.324 298.006 99.5403Z" fill="white"/>
<path d="M302.52 166.878C313.062 161.744 317.473 149.085 312.373 138.603C307.272 128.121 294.591 123.786 284.048 128.92C273.506 134.055 269.095 146.714 274.195 157.196C279.296 167.678 291.977 172.013 302.52 166.878Z" fill="#B9FF66"/>
<path d="M293.176 169.526C290.914 169.526 288.608 169.178 286.368 168.416C280.886 166.588 276.448 162.758 273.882 157.579C271.315 152.421 270.923 146.567 272.772 141.083C276.601 129.789 288.913 123.63 300.246 127.395C305.728 129.223 310.165 133.053 312.732 138.232C315.299 143.39 315.691 149.244 313.842 154.728C310.753 163.781 302.247 169.526 293.176 169.526ZM293.394 127.265C284.715 127.265 276.579 132.749 273.642 141.41C271.88 146.654 272.25 152.247 274.708 157.165C277.166 162.105 281.408 165.783 286.651 167.524C297.484 171.114 309.252 165.239 312.906 154.445C314.668 149.2 314.299 143.608 311.84 138.689C309.382 133.75 305.141 130.072 299.898 128.331C297.745 127.591 295.548 127.265 293.394 127.265Z" fill="black"/>
<path d="M304.097 144.478C303.88 149.766 294.939 162.127 292.807 165.021C292.59 165.326 292.133 165.304 291.937 164.978C290.589 162.802 286.129 155.49 283.802 149.57C282.866 147.22 282.279 145.088 282.344 143.586C282.584 137.58 287.652 132.901 293.656 133.14C299.66 133.423 304.336 138.472 304.097 144.478Z" fill="black"/>
<path d="M296.739 147.57C298.684 145.624 298.684 142.469 296.739 140.523C294.794 138.576 291.64 138.576 289.694 140.523C287.749 142.469 287.749 145.624 289.694 147.57C291.64 149.516 294.794 149.516 296.739 147.57Z" fill="#B9FF66"/>
<defs>
<clipPath id="clip0_0_1403">
<rect width="20" height="20" fill="white" transform="translate(163.632 237.667)"/>
</clipPath>
<clipPath id="clip1_0_1403">
<rect width="39.0699" height="39.0699" fill="white" transform="translate(60.7031 174.333) rotate(45)"/>
</clipPath>
</defs>
</svg>
